<?xml version="1.0" encoding="utf-8"?>
<!-- Generator: Adobe Illustrator 12.0.0, SVG Export Plug-In . SVG Version: 6.00 Build 51448)  -->
<!DOCTYPE svg PUBLIC "-//W3C//DTD SVG 1.1//EN" "http://www.w3.org/Graphics/SVG/1.1/DTD/svg11.dtd" [
	<!ENTITY ns_svg "http://www.w3.org/2000/svg">
	<!ENTITY ns_xlink "http://www.w3.org/1999/xlink">
]>
<svg  version="1.1" id="Layer_1" xmlns="&ns_svg;" xmlns:xlink="&ns_xlink;" width="556.735" height="275.259"
	 viewBox="0 0 556.735 275.259" overflow="visible" enable-background="new 0 0 556.735 275.259" xml:space="preserve">
<path fill="#010101" d="M278.368,0l-84.693,84.693l84.693,84.693l84.691-84.693L278.368,0z M351.709,84.693l-19.028,19.028
	l0.073-37.983L351.709,84.693z M324.64,57.624v27.432h-30.219V74.208h10.867v-7.199h-10.867V41.497h-8.026v25.513h-20.092
	C264.831,56.07,256.3,50.6,240.708,50.6c-0.548,0-1.075,0-1.588-0.001l39.248-39.248L324.64,57.624z M259.696,74.208
	c-0.478,3.992-2.081,6.991-4.817,8.992c-3.314,2.423-8.683,3.635-16.106,3.635c-2.917,0-5.02,0-6.308,0.002V57.255l0,0
	c1.896-0.002,4.606-0.003,8.132-0.002c6.6,0,11.458,1.178,14.576,3.534c2.043,1.544,3.413,3.621,4.117,6.223h-15.87v7.199H259.696z
	 M224.438,65.282v38.822l-19.411-19.411L224.438,65.282z M232.465,112.13V92.254c1.109-0.002,3.279-0.003,6.509-0.002
	c8.859,0,15.667-1.871,20.424-5.612c3.898-3.066,6.197-7.212,6.9-12.432h4.043v61.707h8.027V74.208h8.026v44.575h8.026V92.254
	h30.219v19.508l-46.271,46.272L232.465,112.13z"/>
<text transform="matrix(1 0 0 1 0 218.2046)" fill="#010101" font-family="'OpenSans-Bold'" font-size="50.4578">Pražský Tyrannus Hall</text>
<text transform="matrix(1 0 0 1 101.062 269.6089)" fill="#010101" font-family="'OpenSans-Light'" font-size="21">vysokoškolské učednické společenství</text>
</svg>
